<svg xmlns="http://www.w3.org/2000/svg" xmlns:xlink="http://www.w3.org/1999/xlink" width="999" height="1903" contentScriptType="application/ecmascript" contentStyleType="text/css" preserveAspectRatio="none" style="width:999px;height:1903px" version="1.1" viewBox="0 0 999 1903" zoomAndPan="magnify"><g><rect width="581.5" height="151.188" x="35" fill="#FFF" style="stroke:#000;stroke-width:2" y="198.484"/><rect width="459.5" height="151.188" x="157" fill="#FFF" style="stroke:#000;stroke-width:2" y="363.672"/><rect width="774" height="271.375" x="25" fill="#FFF" style="stroke:#000;stroke-width:2" y="528.859"/><rect width="581.5" height="108.188" x="35" fill="#FFF" style="stroke:#000;stroke-width:2" y="627.75"/><rect width="968" height="463.859" x="25" fill="#FFF" style="stroke:#000;stroke-width:2" y="814.234"/><rect width="581.5" height="108.188" x="35" fill="#FFF" style="stroke:#000;stroke-width:2" y="913.125"/><rect width="642" height="105.891" x="157" fill="#FFF" style="stroke:#000;stroke-width:2" y="1121.906"/><rect width="930" height="434.563" x="25" fill="#FFF" style="stroke:#000;stroke-width:2" y="1292.094"/><rect width="581.5" height="108.188" x="35" fill="#FFF" style="stroke:#000;stroke-width:2" y="1390.984"/><rect width="642" height="105.891" x="157" fill="#FFF" style="stroke:#000;stroke-width:2" y="1570.469"/><rect width="459.5" height="62.594" x="157" fill="#FFF" style="stroke:#000;stroke-width:2" y="1740.656"/><rect width="581.5" height="62.594" x="35" fill="#FFF" style="stroke:#000;stroke-width:2" y="1817.25"/><line style="stroke:#383838;stroke-width:1;stroke-dasharray:5,5" x1="101" x2="101" y1="36.297" y2="1896.844"/><line style="stroke:#383838;stroke-width:1;stroke-dasharray:5,5" x1="227" x2="227" y1="36.297" y2="1896.844"/><line style="stroke:#383838;stroke-width:1;stroke-dasharray:5,5" x1="524.5" x2="524.5" y1="36.297" y2="1896.844"/><line style="stroke:#383838;stroke-width:1;stroke-dasharray:5,5" x1="742" x2="742" y1="36.297" y2="1896.844"/><rect width="112" height="30.297" x="45" fill="#F8F8F8" style="stroke:#383838;stroke-width:1.5" y="5"/><text x="52" y="24.995" fill="#000" font-family="sans-serif" font-size="14" lengthAdjust="spacing" textLength="98">MyPlainScript</text><rect width="120" height="30.297" x="167" fill="#F8F8F8" style="stroke:#383838;stroke-width:1.5" y="5"/><text x="174" y="24.995" fill="#000" font-family="sans-serif" font-size="14" lengthAdjust="spacing" textLength="106">MyGameScript</text><rect width="163" height="30.297" x="443.5" fill="#F8F8F8" style="stroke:#383838;stroke-width:1.5" y="5"/><text x="450.5" y="24.995" fill="#000" font-family="sans-serif" font-size="14" lengthAdjust="spacing" textLength="149">NetworkUpdateLoop</text><rect width="94" height="30.297" x="695" fill="#F8F8F8" style="stroke:#383838;stroke-width:1.5" y="5"/><text x="702" y="24.995" fill="#000" font-family="sans-serif" font-size="14" lengthAdjust="spacing" textLength="80">PlayerLoop</text><path fill="#ECECEC" d="M49,51.2969 L49,77.2969 L153,77.2969 L153,61.2969 L143,51.2969 L49,51.2969" style="stroke:#383838;stroke-width:1"/><path fill="#ECECEC" d="M143,51.2969 L143,61.2969 L153,61.2969 L143,51.2969" style="stroke:#383838;stroke-width:1"/><text x="55" y="69.292" fill="#000" font-family="sans-serif" font-size="14" lengthAdjust="spacing" textLength="83">IDisposable</text><path fill="#ECECEC" d="M5,87.5938 L5,113.5938 L197,113.5938 L197,97.5938 L187,87.5938 L5,87.5938" style="stroke:#383838;stroke-width:1"/><path fill="#ECECEC" d="M187,87.5938 L187,97.5938 L197,97.5938 L187,87.5938" style="stroke:#383838;stroke-width:1"/><text x="11" y="105.589" fill="#000" font-family="sans-serif" font-size="14" lengthAdjust="spacing" textLength="171">INetworkUpdateSystem</text><path fill="#ECECEC" d="M161,123.8906 L161,149.8906 L292,149.8906 L292,133.8906 L282,123.8906 L161,123.8906" style="stroke:#383838;stroke-width:1"/><path fill="#ECECEC" d="M282,123.8906 L282,133.8906 L292,133.8906 L282,123.8906" style="stroke:#383838;stroke-width:1"/><text x="167" y="141.886" fill="#000" font-family="sans-serif" font-size="14" lengthAdjust="spacing" textLength="110">MonoBehaviour</text><path fill="#ECECEC" d="M131,160.1875 L131,186.1875 L323,186.1875 L323,170.1875 L313,160.1875 L131,160.1875" style="stroke:#383838;stroke-width:1"/><path fill="#ECECEC" d="M313,160.1875 L313,170.1875 L323,170.1875 L313,160.1875" style="stroke:#383838;stroke-width:1"/><text x="137" y="178.183" fill="#000" font-family="sans-serif" font-size="14" lengthAdjust="spacing" textLength="171">INetworkUpdateSystem</text><path fill="#EEE" d="M35,198.4844 L268,198.4844 L268,206.4844 L258,216.4844 L35,216.4844 L35,198.4844" style="stroke:#000;stroke-width:1"/><rect width="581.5" height="151.188" x="35" fill="none" style="stroke:#000;stroke-width:2" y="198.484"/><text x="50" y="212.48" fill="#000" font-family="sans-serif" font-size="14" font-weight="bold" lengthAdjust="spacing" textLength="188">MyPlainScript.Initialize</text><polygon fill="#383838" points="513 235.078 523 239.078 513 243.078" style="stroke:#383838;stroke-width:1"/><line style="stroke:#383838;stroke-width:1" x1="101" x2="519" y1="239.078" y2="239.078"/><text x="108" y="233.776" fill="#000" font-family="sans-serif" font-size="14" lengthAdjust="spacing" textLength="271">RegisterNetworkUpdate(EarlyUpdate)</text><polygon fill="#383838" points="112 249.078 102 253.078 112 257.078" style="stroke:#383838;stroke-width:1"/><line style="stroke:#383838;stroke-width:1;stroke-dasharray:2,2" x1="106" x2="524" y1="253.078" y2="253.078"/><polygon fill="#383838" points="513 279.375 523 283.375 513 287.375" style="stroke:#383838;stroke-width:1"/><line style="stroke:#383838;stroke-width:1" x1="101" x2="519" y1="283.375" y2="283.375"/><text x="108" y="278.073" fill="#000" font-family="sans-serif" font-size="14" lengthAdjust="spacing" textLength="274">RegisterNetworkUpdate(FixedUpdate)</text><polygon fill="#383838" points="112 293.375 102 297.375 112 301.375" style="stroke:#383838;stroke-width:1"/><line style="stroke:#383838;stroke-width:1;stroke-dasharray:2,2" x1="106" x2="524" y1="297.375" y2="297.375"/><polygon fill="#383838" points="513 323.672 523 327.672 513 331.672" style="stroke:#383838;stroke-width:1"/><line style="stroke:#383838;stroke-width:1" x1="101" x2="519" y1="327.672" y2="327.672"/><text x="108" y="322.37" fill="#000" font-family="sans-serif" font-size="14" lengthAdjust="spacing" textLength="236">RegisterNetworkUpdate(Update)</text><polygon fill="#383838" points="112 337.672 102 341.672 112 345.672" style="stroke:#383838;stroke-width:1"/><line style="stroke:#383838;stroke-width:1;stroke-dasharray:2,2" x1="106" x2="524" y1="341.672" y2="341.672"/><path fill="#EEE" d="M157,363.6719 L407,363.6719 L407,371.6719 L397,381.6719 L157,381.6719 L157,363.6719" style="stroke:#000;stroke-width:1"/><rect width="459.5" height="151.188" x="157" fill="none" style="stroke:#000;stroke-width:2" y="363.672"/><text x="172" y="377.667" fill="#000" font-family="sans-serif" font-size="14" font-weight="bold" lengthAdjust="spacing" textLength="205">MonoBehaviour.OnEnable</text><polygon fill="#383838" points="513 400.266 523 404.266 513 408.266" style="stroke:#383838;stroke-width:1"/><line style="stroke:#383838;stroke-width:1" x1="227" x2="519" y1="404.266" y2="404.266"/><text x="234" y="398.964" fill="#000" font-family="sans-serif" font-size="14" lengthAdjust="spacing" textLength="271">RegisterNetworkUpdate(EarlyUpdate)</text><polygon fill="#383838" points="238 414.266 228 418.266 238 422.266" style="stroke:#383838;stroke-width:1"/><line style="stroke:#383838;stroke-width:1;stroke-dasharray:2,2" x1="232" x2="524" y1="418.266" y2="418.266"/><polygon fill="#383838" points="513 444.563 523 448.563 513 452.563" style="stroke:#383838;stroke-width:1"/><line style="stroke:#383838;stroke-width:1" x1="227" x2="519" y1="448.563" y2="448.563"/><text x="234" y="443.261" fill="#000" font-family="sans-serif" font-size="14" lengthAdjust="spacing" textLength="274">RegisterNetworkUpdate(FixedUpdate)</text><polygon fill="#383838" points="238 458.563 228 462.563 238 466.563" style="stroke:#383838;stroke-width:1"/><line style="stroke:#383838;stroke-width:1;stroke-dasharray:2,2" x1="232" x2="524" y1="462.563" y2="462.563"/><polygon fill="#383838" points="513 488.859 523 492.859 513 496.859" style="stroke:#383838;stroke-width:1"/><line style="stroke:#383838;stroke-width:1" x1="227" x2="519" y1="492.859" y2="492.859"/><text x="234" y="487.558" fill="#000" font-family="sans-serif" font-size="14" lengthAdjust="spacing" textLength="236">RegisterNetworkUpdate(Update)</text><polygon fill="#383838" points="238 502.859 228 506.859 238 510.859" style="stroke:#383838;stroke-width:1"/><line style="stroke:#383838;stroke-width:1;stroke-dasharray:2,2" x1="232" x2="524" y1="506.859" y2="506.859"/><path fill="#EEE" d="M25,528.8594 L262,528.8594 L262,536.8594 L252,546.8594 L25,546.8594 L25,528.8594" style="stroke:#000;stroke-width:1"/><rect width="774" height="271.375" x="25" fill="none" style="stroke:#000;stroke-width:2" y="528.859"/><text x="40" y="542.855" fill="#000" font-family="sans-serif" font-size="14" font-weight="bold" lengthAdjust="spacing" textLength="192">PlayerLoop.EarlyUpdate</text><polygon fill="#383838" points="536 565.453 526 569.453 536 573.453" style="stroke:#383838;stroke-width:1"/><line style="stroke:#383838;stroke-width:1" x1="530" x2="741" y1="569.453" y2="569.453"/><text x="542" y="564.151" fill="#000" font-family="sans-serif" font-size="14" lengthAdjust="spacing" textLength="175">RunNetworkEarlyUpdate</text><line style="stroke:#383838;stroke-width:1" x1="525" x2="567" y1="599.75" y2="599.75"/><line style="stroke:#383838;stroke-width:1" x1="567" x2="567" y1="599.75" y2="612.75"/><line style="stroke:#383838;stroke-width:1" x1="526" x2="567" y1="612.75" y2="612.75"/><polygon fill="#383838" points="536 608.75 526 612.75 536 616.75" style="stroke:#383838;stroke-width:1"/><text x="532" y="594.448" fill="#000" font-family="sans-serif" font-size="14" lengthAdjust="spacing" textLength="200">UpdateStage = EarlyUpdate</text><path fill="#EEE" d="M35,627.75 L115,627.75 L115,635.75 L105,645.75 L35,645.75 L35,627.75" style="stroke:#000;stroke-width:1"/><rect width="581.5" height="108.188" x="35" fill="none" style="stroke:#000;stroke-width:2" y="627.75"/><text x="50" y="641.745" fill="#000" font-family="sans-serif" font-size="14" font-weight="bold" lengthAdjust="spacing" textLength="35">loop</text><text x="130" y="642.745" fill="#000" font-family="sans-serif" font-size="14" font-weight="bold" lengthAdjust="spacing" textLength="184">[m_EarlyUpdate_Array]</text><polygon fill="#383838" points="112 665.641 102 669.641 112 673.641" style="stroke:#383838;stroke-width:1"/><line style="stroke:#383838;stroke-width:1" x1="106" x2="524" y1="669.641" y2="669.641"/><text x="118" y="664.339" fill="#000" font-family="sans-serif" font-size="14" lengthAdjust="spacing" textLength="113">NetworkUpdate</text><polygon fill="#383838" points="513 679.641 523 683.641 513 687.641" style="stroke:#383838;stroke-width:1"/><line style="stroke:#383838;stroke-width:1;stroke-dasharray:2,2" x1="101" x2="519" y1="683.641" y2="683.641"/><polygon fill="#383838" points="238 709.938 228 713.938 238 717.938" style="stroke:#383838;stroke-width:1"/><line style="stroke:#383838;stroke-width:1" x1="232" x2="524" y1="713.938" y2="713.938"/><text x="244" y="708.636" fill="#000" font-family="sans-serif" font-size="14" lengthAdjust="spacing" textLength="113">NetworkUpdate</text><polygon fill="#383838" points="513 723.938 523 727.938 513 731.938" style="stroke:#383838;stroke-width:1"/><line style="stroke:#383838;stroke-width:1;stroke-dasharray:2,2" x1="227" x2="519" y1="727.938" y2="727.938"/><polygon fill="#383838" points="730 744.938 740 748.938 730 752.938" style="stroke:#383838;stroke-width:1"/><line style="stroke:#383838;stroke-width:1;stroke-dasharray:2,2" x1="525" x2="736" y1="748.938" y2="748.938"/><line style="stroke:#383838;stroke-width:1" x1="742" x2="784" y1="779.234" y2="779.234"/><line style="stroke:#383838;stroke-width:1" x1="784" x2="784" y1="779.234" y2="792.234"/><line style="stroke:#383838;stroke-width:1" x1="743" x2="784" y1="792.234" y2="792.234"/><polygon fill="#383838" points="753 788.234 743 792.234 753 796.234" style="stroke:#383838;stroke-width:1"/><text x="749" y="773.933" fill="#000" font-family="sans-serif" font-size="14" lengthAdjust="spacing" textLength="29">// ...</text><path fill="#EEE" d="M25,814.2344 L264,814.2344 L264,822.2344 L254,832.2344 L25,832.2344 L25,814.2344" style="stroke:#000;stroke-width:1"/><rect width="968" height="463.859" x="25" fill="none" style="stroke:#000;stroke-width:2" y="814.234"/><text x="40" y="828.23" fill="#000" font-family="sans-serif" font-size="14" font-weight="bold" lengthAdjust="spacing" textLength="194">PlayerLoop.FixedUpdate</text><polygon fill="#383838" points="536 850.828 526 854.828 536 858.828" style="stroke:#383838;stroke-width:1"/><line style="stroke:#383838;stroke-width:1" x1="530" x2="741" y1="854.828" y2="854.828"/><text x="542" y="849.526" fill="#000" font-family="sans-serif" font-size="14" lengthAdjust="spacing" textLength="178">RunNetworkFixedUpdate</text><line style="stroke:#383838;stroke-width:1" x1="525" x2="567" y1="885.125" y2="885.125"/><line style="stroke:#383838;stroke-width:1" x1="567" x2="567" y1="885.125" y2="898.125"/><line style="stroke:#383838;stroke-width:1" x1="526" x2="567" y1="898.125" y2="898.125"/><polygon fill="#383838" points="536 894.125 526 898.125 536 902.125" style="stroke:#383838;stroke-width:1"/><text x="532" y="879.823" fill="#000" font-family="sans-serif" font-size="14" lengthAdjust="spacing" textLength="203">UpdateStage = FixedUpdate</text><path fill="#EEE" d="M35,913.125 L115,913.125 L115,921.125 L105,931.125 L35,931.125 L35,913.125" style="stroke:#000;stroke-width:1"/><rect width="581.5" height="108.188" x="35" fill="none" style="stroke:#000;stroke-width:2" y="913.125"/><text x="50" y="927.12" fill="#000" font-family="sans-serif" font-size="14" font-weight="bold" lengthAdjust="spacing" textLength="35">loop</text><text x="130" y="928.12" fill="#000" font-family="sans-serif" font-size="14" font-weight="bold" lengthAdjust="spacing" textLength="186">[m_FixedUpdate_Array]</text><polygon fill="#383838" points="112 951.016 102 955.016 112 959.016" style="stroke:#383838;stroke-width:1"/><line style="stroke:#383838;stroke-width:1" x1="106" x2="524" y1="955.016" y2="955.016"/><text x="118" y="949.714" fill="#000" font-family="sans-serif" font-size="14" lengthAdjust="spacing" textLength="113">NetworkUpdate</text><polygon fill="#383838" points="513 965.016 523 969.016 513 973.016" style="stroke:#383838;stroke-width:1"/><line style="stroke:#383838;stroke-width:1;stroke-dasharray:2,2" x1="101" x2="519" y1="969.016" y2="969.016"/><polygon fill="#383838" points="238 995.313 228 999.313 238 1003.313" style="stroke:#383838;stroke-width:1"/><line style="stroke:#383838;stroke-width:1" x1="232" x2="524" y1="999.313" y2="999.313"/><text x="244" y="994.011" fill="#000" font-family="sans-serif" font-size="14" lengthAdjust="spacing" textLength="113">NetworkUpdate</text><polygon fill="#383838" points="513 1009.313 523 1013.313 513 1017.313" style="stroke:#383838;stroke-width:1"/><line style="stroke:#383838;stroke-width:1;stroke-dasharray:2,2" x1="227" x2="519" y1="1013.313" y2="1013.313"/><line style="stroke:#383838;stroke-width:1" x1="742" x2="784" y1="1050.609" y2="1050.609"/><line style="stroke:#383838;stroke-width:1" x1="784" x2="784" y1="1050.609" y2="1063.609"/><line style="stroke:#383838;stroke-width:1" x1="743" x2="784" y1="1063.609" y2="1063.609"/><polygon fill="#383838" points="753 1059.609 743 1063.609 753 1067.609" style="stroke:#383838;stroke-width:1"/><text x="749" y="1045.308" fill="#000" font-family="sans-serif" font-size="14" lengthAdjust="spacing" textLength="29">// ...</text><line style="stroke:#383838;stroke-width:1" x1="742" x2="784" y1="1093.906" y2="1093.906"/><line style="stroke:#383838;stroke-width:1" x1="784" x2="784" y1="1093.906" y2="1106.906"/><line style="stroke:#383838;stroke-width:1" x1="743" x2="784" y1="1106.906" y2="1106.906"/><polygon fill="#383838" points="753 1102.906 743 1106.906 753 1110.906" style="stroke:#383838;stroke-width:1"/><text x="749" y="1088.604" fill="#000" font-family="sans-serif" font-size="14" lengthAdjust="spacing" textLength="232">ScriptRunBehaviourFixedUpdate</text><path fill="#EEE" d="M157,1121.9063 L432,1121.9063 L432,1129.9063 L422,1139.9063 L157,1139.9063 L157,1121.9063" style="stroke:#000;stroke-width:1"/><rect width="642" height="105.891" x="157" fill="none" style="stroke:#000;stroke-width:2" y="1121.906"/><text x="172" y="1135.901" fill="#000" font-family="sans-serif" font-size="14" font-weight="bold" lengthAdjust="spacing" textLength="230">MonoBehaviour.FixedUpdate</text><polygon fill="#383838" points="238 1158.5 228 1162.5 238 1166.5" style="stroke:#383838;stroke-width:1"/><line style="stroke:#383838;stroke-width:1" x1="232" x2="741" y1="1162.5" y2="1162.5"/><text x="244" y="1157.198" fill="#000" font-family="sans-serif" font-size="14" lengthAdjust="spacing" textLength="90">FixedUpdate</text><line style="stroke:#383838;stroke-width:1" x1="227" x2="269" y1="1192.797" y2="1192.797"/><line style="stroke:#383838;stroke-width:1" x1="269" x2="269" y1="1192.797" y2="1205.797"/><line style="stroke:#383838;stroke-width:1" x1="228" x2="269" y1="1205.797" y2="1205.797"/><polygon fill="#383838" points="238 1201.797 228 1205.797 238 1209.797" style="stroke:#383838;stroke-width:1"/><text x="234" y="1187.495" fill="#000" font-family="sans-serif" font-size="14" lengthAdjust="spacing" textLength="29">// ...</text><polygon fill="#383838" points="730 1215.797 740 1219.797 730 1223.797" style="stroke:#383838;stroke-width:1"/><line style="stroke:#383838;stroke-width:1;stroke-dasharray:2,2" x1="227" x2="736" y1="1219.797" y2="1219.797"/><line style="stroke:#383838;stroke-width:1" x1="742" x2="784" y1="1257.094" y2="1257.094"/><line style="stroke:#383838;stroke-width:1" x1="784" x2="784" y1="1257.094" y2="1270.094"/><line style="stroke:#383838;stroke-width:1" x1="743" x2="784" y1="1270.094" y2="1270.094"/><polygon fill="#383838" points="753 1266.094 743 1270.094 753 1274.094" style="stroke:#383838;stroke-width:1"/><text x="749" y="1251.792" fill="#000" font-family="sans-serif" font-size="14" lengthAdjust="spacing" textLength="29">// ...</text><path fill="#EEE" d="M25,1292.0938 L222,1292.0938 L222,1300.0938 L212,1310.0938 L25,1310.0938 L25,1292.0938" style="stroke:#000;stroke-width:1"/><rect width="930" height="434.563" x="25" fill="none" style="stroke:#000;stroke-width:2" y="1292.094"/><text x="40" y="1306.089" fill="#000" font-family="sans-serif" font-size="14" font-weight="bold" lengthAdjust="spacing" textLength="152">PlayerLoop.Update</text><polygon fill="#383838" points="536 1328.688 526 1332.688 536 1336.688" style="stroke:#383838;stroke-width:1"/><line style="stroke:#383838;stroke-width:1" x1="530" x2="741" y1="1332.688" y2="1332.688"/><text x="542" y="1327.386" fill="#000" font-family="sans-serif" font-size="14" lengthAdjust="spacing" textLength="140">RunNetworkUpdate</text><line style="stroke:#383838;stroke-width:1" x1="525" x2="567" y1="1362.984" y2="1362.984"/><line style="stroke:#383838;stroke-width:1" x1="567" x2="567" y1="1362.984" y2="1375.984"/><line style="stroke:#383838;stroke-width:1" x1="526" x2="567" y1="1375.984" y2="1375.984"/><polygon fill="#383838" points="536 1371.984 526 1375.984 536 1379.984" style="stroke:#383838;stroke-width:1"/><text x="532" y="1357.683" fill="#000" font-family="sans-serif" font-size="14" lengthAdjust="spacing" textLength="165">UpdateStage = Update</text><path fill="#EEE" d="M35,1390.9844 L115,1390.9844 L115,1398.9844 L105,1408.9844 L35,1408.9844 L35,1390.9844" style="stroke:#000;stroke-width:1"/><rect width="581.5" height="108.188" x="35" fill="none" style="stroke:#000;stroke-width:2" y="1390.984"/><text x="50" y="1404.979" fill="#000" font-family="sans-serif" font-size="14" font-weight="bold" lengthAdjust="spacing" textLength="35">loop</text><text x="130" y="1405.979" fill="#000" font-family="sans-serif" font-size="14" font-weight="bold" lengthAdjust="spacing" textLength="144">[m_Update_Array]</text><polygon fill="#383838" points="112 1428.875 102 1432.875 112 1436.875" style="stroke:#383838;stroke-width:1"/><line style="stroke:#383838;stroke-width:1" x1="106" x2="524" y1="1432.875" y2="1432.875"/><text x="118" y="1427.573" fill="#000" font-family="sans-serif" font-size="14" lengthAdjust="spacing" textLength="113">NetworkUpdate</text><polygon fill="#383838" points="513 1442.875 523 1446.875 513 1450.875" style="stroke:#383838;stroke-width:1"/><line style="stroke:#383838;stroke-width:1;stroke-dasharray:2,2" x1="101" x2="519" y1="1446.875" y2="1446.875"/><polygon fill="#383838" points="238 1473.172 228 1477.172 238 1481.172" style="stroke:#383838;stroke-width:1"/><line style="stroke:#383838;stroke-width:1" x1="232" x2="524" y1="1477.172" y2="1477.172"/><text x="244" y="1471.87" fill="#000" font-family="sans-serif" font-size="14" lengthAdjust="spacing" textLength="113">NetworkUpdate</text><polygon fill="#383838" points="513 1487.172 523 1491.172 513 1495.172" style="stroke:#383838;stroke-width:1"/><line style="stroke:#383838;stroke-width:1;stroke-dasharray:2,2" x1="227" x2="519" y1="1491.172" y2="1491.172"/><polygon fill="#383838" points="730 1508.172 740 1512.172 730 1516.172" style="stroke:#383838;stroke-width:1"/><line style="stroke:#383838;stroke-width:1;stroke-dasharray:2,2" x1="525" x2="736" y1="1512.172" y2="1512.172"/><line style="stroke:#383838;stroke-width:1" x1="742" x2="784" y1="1542.469" y2="1542.469"/><line style="stroke:#383838;stroke-width:1" x1="784" x2="784" y1="1542.469" y2="1555.469"/><line style="stroke:#383838;stroke-width:1" x1="743" x2="784" y1="1555.469" y2="1555.469"/><polygon fill="#383838" points="753 1551.469 743 1555.469 753 1559.469" style="stroke:#383838;stroke-width:1"/><text x="749" y="1537.167" fill="#000" font-family="sans-serif" font-size="14" lengthAdjust="spacing" textLength="194">ScriptRunBehaviourUpdate</text><path fill="#EEE" d="M157,1570.4688 L390,1570.4688 L390,1578.4688 L380,1588.4688 L157,1588.4688 L157,1570.4688" style="stroke:#000;stroke-width:1"/><rect width="642" height="105.891" x="157" fill="none" style="stroke:#000;stroke-width:2" y="1570.469"/><text x="172" y="1584.464" fill="#000" font-family="sans-serif" font-size="14" font-weight="bold" lengthAdjust="spacing" textLength="188">MonoBehaviour.Update</text><polygon fill="#383838" points="238 1607.063 228 1611.063 238 1615.063" style="stroke:#383838;stroke-width:1"/><line style="stroke:#383838;stroke-width:1" x1="232" x2="741" y1="1611.063" y2="1611.063"/><text x="244" y="1605.761" fill="#000" font-family="sans-serif" font-size="14" lengthAdjust="spacing" textLength="52">Update</text><line style="stroke:#383838;stroke-width:1" x1="227" x2="269" y1="1641.359" y2="1641.359"/><line style="stroke:#383838;stroke-width:1" x1="269" x2="269" y1="1641.359" y2="1654.359"/><line style="stroke:#383838;stroke-width:1" x1="228" x2="269" y1="1654.359" y2="1654.359"/><polygon fill="#383838" points="238 1650.359 228 1654.359 238 1658.359" style="stroke:#383838;stroke-width:1"/><text x="234" y="1636.058" fill="#000" font-family="sans-serif" font-size="14" lengthAdjust="spacing" textLength="29">// ...</text><polygon fill="#383838" points="730 1664.359 740 1668.359 730 1672.359" style="stroke:#383838;stroke-width:1"/><line style="stroke:#383838;stroke-width:1;stroke-dasharray:2,2" x1="227" x2="736" y1="1668.359" y2="1668.359"/><line style="stroke:#383838;stroke-width:1" x1="742" x2="784" y1="1705.656" y2="1705.656"/><line style="stroke:#383838;stroke-width:1" x1="784" x2="784" y1="1705.656" y2="1718.656"/><line style="stroke:#383838;stroke-width:1" x1="743" x2="784" y1="1718.656" y2="1718.656"/><polygon fill="#383838" points="753 1714.656 743 1718.656 753 1722.656" style="stroke:#383838;stroke-width:1"/><text x="749" y="1700.354" fill="#000" font-family="sans-serif" font-size="14" lengthAdjust="spacing" textLength="29">// ...</text><path fill="#EEE" d="M157,1740.6563 L413,1740.6563 L413,1748.6563 L403,1758.6563 L157,1758.6563 L157,1740.6563" style="stroke:#000;stroke-width:1"/><rect width="459.5" height="62.594" x="157" fill="none" style="stroke:#000;stroke-width:2" y="1740.656"/><text x="172" y="1754.651" fill="#000" font-family="sans-serif" font-size="14" font-weight="bold" lengthAdjust="spacing" textLength="211">MonoBehaviour.OnDisable</text><polygon fill="#383838" points="513 1777.25 523 1781.25 513 1785.25" style="stroke:#383838;stroke-width:1"/><line style="stroke:#383838;stroke-width:1" x1="227" x2="519" y1="1781.25" y2="1781.25"/><text x="234" y="1775.948" fill="#000" font-family="sans-serif" font-size="14" lengthAdjust="spacing" textLength="213">UnregisterAllNetworkUpdates</text><polygon fill="#383838" points="238 1791.25 228 1795.25 238 1799.25" style="stroke:#383838;stroke-width:1"/><line style="stroke:#383838;stroke-width:1;stroke-dasharray:2,2" x1="232" x2="524" y1="1795.25" y2="1795.25"/><path fill="#EEE" d="M35,1817.25 L241,1817.25 L241,1825.25 L231,1835.25 L35,1835.25 L35,1817.25" style="stroke:#000;stroke-width:1"/><rect width="581.5" height="62.594" x="35" fill="none" style="stroke:#000;stroke-width:2" y="1817.25"/><text x="50" y="1831.245" fill="#000" font-family="sans-serif" font-size="14" font-weight="bold" lengthAdjust="spacing" textLength="161">IDisposable.Dispose</text><polygon fill="#383838" points="513 1853.844 523 1857.844 513 1861.844" style="stroke:#383838;stroke-width:1"/><line style="stroke:#383838;stroke-width:1" x1="101" x2="519" y1="1857.844" y2="1857.844"/><text x="108" y="1852.542" fill="#000" font-family="sans-serif" font-size="14" lengthAdjust="spacing" textLength="213">UnregisterAllNetworkUpdates</text><polygon fill="#383838" points="112 1867.844 102 1871.844 112 1875.844" style="stroke:#383838;stroke-width:1"/><line style="stroke:#383838;stroke-width:1;stroke-dasharray:2,2" x1="106" x2="524" y1="1871.844" y2="1871.844"/></g></svg>